<svg xmlns="http://www.w3.org/2000/svg" width="1120" height="390" viewBox="0 0 1120 390"><rect width="100%" height="100%" fill="white"/><text x="560" y="35" text-anchor="middle" font-size="24" font-family="Arial" font-weight="bold">Frozen-test confusion matrices</text><text x="170" y="72" text-anchor="middle" font-size="18" font-family="Arial" font-weight="bold">Logistic Regression</text><rect x="55" y="105" width="115" height="115" fill="rgb(156,181,255)" stroke="#4b5563"/><text x="112.5" y="169.5" text-anchor="middle" font-size="19" font-family="Arial">28,410</text><rect x="170" y="105" width="115" height="115" fill="rgb(234,259,255)" stroke="#4b5563"/><text x="227.5" y="169.5" text-anchor="middle" font-size="19" font-family="Arial">36</text><rect x="55" y="220" width="115" height="115" fill="rgb(233,258,255)" stroke="#4b5563"/><text x="112.5" y="284.5" text-anchor="middle" font-size="19" font-family="Arial">153</text><rect x="170" y="220" width="115" height="115" fill="rgb(185,210,255)" stroke="#4b5563"/><text x="227.5" y="284.5" text-anchor="middle" font-size="19" font-family="Arial">17,824</text><text x="112.5" y="93" text-anchor="middle" font-size="14" font-family="Arial">Human</text><text x="227.5" y="93" text-anchor="middle" font-size="14" font-family="Arial">AI</text><text x="45" y="167.5" text-anchor="end" font-size="14" font-family="Arial">Human</text><text x="45" y="282.5" text-anchor="end" font-size="14" font-family="Arial">AI</text><text x="170" y="370" text-anchor="middle" font-size="14" font-family="Arial">Predicted label</text><text x="530" y="72" text-anchor="middle" font-size="18" font-family="Arial" font-weight="bold">Linear SVM</text><rect x="415" y="105" width="115" height="115" fill="rgb(156,181,255)" stroke="#4b5563"/><text x="472.5" y="169.5" text-anchor="middle" font-size="19" font-family="Arial">28,441</text><rect x="530" y="105" width="115" height="115" fill="rgb(234,259,255)" stroke="#4b5563"/><text x="587.5" y="169.5" text-anchor="middle" font-size="19" font-family="Arial">5</text><rect x="415" y="220" width="115" height="115" fill="rgb(234,259,255)" stroke="#4b5563"/><text x="472.5" y="284.5" text-anchor="middle" font-size="19" font-family="Arial">14</text><rect x="530" y="220" width="115" height="115" fill="rgb(184,209,255)" stroke="#4b5563"/><text x="587.5" y="284.5" text-anchor="middle" font-size="19" font-family="Arial">17,963</text><text x="472.5" y="93" text-anchor="middle" font-size="14" font-family="Arial">Human</text><text x="587.5" y="93" text-anchor="middle" font-size="14" font-family="Arial">AI</text><text x="405" y="167.5" text-anchor="end" font-size="14" font-family="Arial">Human</text><text x="405" y="282.5" text-anchor="end" font-size="14" font-family="Arial">AI</text><text x="530" y="370" text-anchor="middle" font-size="14" font-family="Arial">Predicted label</text><text x="890" y="72" text-anchor="middle" font-size="18" font-family="Arial" font-weight="bold">DistilBERT</text><rect x="775" y="105" width="115" height="115" fill="rgb(156,181,255)" stroke="#4b5563"/><text x="832.5" y="169.5" text-anchor="middle" font-size="19" font-family="Arial">28,417</text><rect x="890" y="105" width="115" height="115" fill="rgb(234,259,255)" stroke="#4b5563"/><text x="947.5" y="169.5" text-anchor="middle" font-size="19" font-family="Arial">29</text><rect x="775" y="220" width="115" height="115" fill="rgb(234,259,255)" stroke="#4b5563"/><text x="832.5" y="284.5" text-anchor="middle" font-size="19" font-family="Arial">21</text><rect x="890" y="220" width="115" height="115" fill="rgb(184,209,255)" stroke="#4b5563"/><text x="947.5" y="284.5" text-anchor="middle" font-size="19" font-family="Arial">17,956</text><text x="832.5" y="93" text-anchor="middle" font-size="14" font-family="Arial">Human</text><text x="947.5" y="93" text-anchor="middle" font-size="14" font-family="Arial">AI</text><text x="765" y="167.5" text-anchor="end" font-size="14" font-family="Arial">Human</text><text x="765" y="282.5" text-anchor="end" font-size="14" font-family="Arial">AI</text><text x="890" y="370" text-anchor="middle" font-size="14" font-family="Arial">Predicted label</text></svg>
