<svg xmlns="http://www.w3.org/2000/svg" width="900" height="500" viewBox="0 0 900 500"><rect width="100%" height="100%" fill="white"/><text x="450" y="35" text-anchor="middle" font-size="23" font-family="Arial" font-weight="bold">Frozen-test error rate by 512-token truncation</text><line x1="85" y1="410.0" x2="845" y2="{y}" stroke="#d1d5db" stroke-width="1"/><text x="75" y="415.0" text-anchor="end" font-size="12" font-family="Arial">0.000%</text><line x1="85" y1="344.0" x2="845" y2="{y}" stroke="#d1d5db" stroke-width="1"/><text x="75" y="349.0" text-anchor="end" font-size="12" font-family="Arial">0.117%</text><line x1="85" y1="278.0" x2="845" y2="{y}" stroke="#d1d5db" stroke-width="1"/><text x="75" y="283.0" text-anchor="end" font-size="12" font-family="Arial">0.234%</text><line x1="85" y1="212.0" x2="845" y2="{y}" stroke="#d1d5db" stroke-width="1"/><text x="75" y="217.0" text-anchor="end" font-size="12" font-family="Arial">0.351%</text><line x1="85" y1="146.0" x2="845" y2="{y}" stroke="#d1d5db" stroke-width="1"/><text x="75" y="151.0" text-anchor="end" font-size="12" font-family="Arial">0.469%</text><line x1="85" y1="80.0" x2="845" y2="{y}" stroke="#d1d5db" stroke-width="1"/><text x="75" y="85.0" text-anchor="end" font-size="12" font-family="Arial">0.586%</text><rect x="144.66666666666669" y="130.33898305084745" width="62" height="279.66101694915255" fill="#7aa6c2"/><text x="175.66666666666669" y="124.33898305084745" text-anchor="middle" font-size="12" font-family="Arial">0.496%</text><rect x="216.66666666666669" y="279.9850448654038" width="62" height="130.01495513459625" fill="#d97757"/><text x="247.66666666666669" y="273.9850448654038" text-anchor="middle" font-size="12" font-family="Arial">0.231%</text><text x="211.66666666666669" y="440" text-anchor="middle" font-size="14" font-family="Arial">Logistic Regression</text><rect x="398.0" y="382.58225324027916" width="62" height="27.417746759720842" fill="#7aa6c2"/><text x="429.0" y="376.58225324027916" text-anchor="middle" font-size="12" font-family="Arial">0.049%</text><rect x="470.0" y="395.55389387393376" width="62" height="14.44610612606625" fill="#d97757"/><text x="501.0" y="389.55389387393376" text-anchor="middle" font-size="12" font-family="Arial">0.026%</text><text x="465.0" y="440" text-anchor="middle" font-size="14" font-family="Arial">Linear SVM</text><rect x="651.3333333333334" y="340.5417082087072" width="62" height="69.45829179129281" fill="#7aa6c2"/><text x="682.3333333333334" y="334.5417082087072" text-anchor="middle" font-size="12" font-family="Arial">0.123%</text><rect x="723.3333333333334" y="366.6616816218013" width="62" height="43.33831837819874" fill="#d97757"/><text x="754.3333333333334" y="360.6616816218013" text-anchor="middle" font-size="12" font-family="Arial">0.077%</text><text x="718.3333333333334" y="440" text-anchor="middle" font-size="14" font-family="Arial">DistilBERT</text><rect x="300" y="455" width="18" height="18" fill="#7aa6c2"/><text x="326" y="469" font-size="14" font-family="Arial">not truncated</text><rect x="520" y="455" width="18" height="18" fill="#d97757"/><text x="546" y="469" font-size="14" font-family="Arial">truncated</text></svg>
